<?xml version="1.0" encoding="utf-8" standalone="no"?>
<!DOCTYPE svg PUBLIC "-//W3C//DTD SVG 1.1//EN"
  "http://www.w3.org/Graphics/SVG/1.1/DTD/svg11.dtd">
<svg xmlns:xlink="http://www.w3.org/1999/xlink" width="864pt" height="576pt" viewBox="0 0 864 576" xmlns="http://www.w3.org/2000/svg" version="1.1">
 <metadata>
  <rdf:RDF xmlns:dc="http://purl.org/dc/elements/1.1/" xmlns:cc="http://creativecommons.org/ns#" xmlns:rdf="http://www.w3.org/1999/02/22-rdf-syntax-ns#">
   <cc:Work>
    <dc:type rdf:resource="http://purl.org/dc/dcmitype/StillImage"/>
    <dc:date>2025-12-07T19:39:44.738915</dc:date>
    <dc:format>image/svg+xml</dc:format>
    <dc:creator>
     <cc:Agent>
      <dc:title>Matplotlib v3.10.1, https://matplotlib.org/</dc:title>
     </cc:Agent>
    </dc:creator>
   </cc:Work>
  </rdf:RDF>
 </metadata>
 <defs>
  <style type="text/css">*{stroke-linejoin: round; stroke-linecap: butt}</style>
 </defs>
 <g id="figure_1">
  <g id="patch_1">
   <path d="M 0 576 
L 864 576 
L 864 0 
L 0 0 
z
" style="fill: #ffffff"/>
  </g>
  <g id="axes_1">
   <g id="patch_2">
    <path d="M 108 512.64 
L 777.6 512.64 
L 777.6 69.12 
L 108 69.12 
z
" style="fill: #ffffff"/>
   </g>
   <g id="matplotlib.axis_1">
    <g id="xtick_1">
     <g id="line2d_1">
      <path d="M 229.662403 512.64 
L 229.662403 69.12 
" clip-path="url(#pbdf5842918)" style="fill: none; stroke: #cccccc; stroke-width: 1.5; stroke-linecap: round"/>
     </g>
     <g id="text_1">
      <!-- 0.5 -->
      <g style="fill: #262626" transform="translate(216.542325 537.677422) scale(0.165 -0.165)">
       <defs>
        <path id="DejaVuSans-30" d="M 2034 4250 
Q 1547 4250 1301 3770 
Q 1056 3291 1056 2328 
Q 1056 1369 1301 889 
Q 1547 409 2034 409 
Q 2525 409 2770 889 
Q 3016 1369 3016 2328 
Q 3016 3291 2770 3770 
Q 2525 4250 2034 4250 
z
M 2034 4750 
Q 2819 4750 3233 4129 
Q 3647 3509 3647 2328 
Q 3647 1150 3233 529 
Q 2819 -91 2034 -91 
Q 1250 -91 836 529 
Q 422 1150 422 2328 
Q 422 3509 836 4129 
Q 1250 4750 2034 4750 
z
" transform="scale(0.015625)"/>
        <path id="DejaVuSans-2e" d="M 684 794 
L 1344 794 
L 1344 0 
L 684 0 
L 684 794 
z
" transform="scale(0.015625)"/>
        <path id="DejaVuSans-35" d="M 691 4666 
L 3169 4666 
L 3169 4134 
L 1269 4134 
L 1269 2991 
Q 1406 3038 1543 3061 
Q 1681 3084 1819 3084 
Q 2600 3084 3056 2656 
Q 3513 2228 3513 1497 
Q 3513 744 3044 326 
Q 2575 -91 1722 -91 
Q 1428 -91 1123 -41 
Q 819 9 494 109 
L 494 744 
Q 775 591 1075 516 
Q 1375 441 1709 441 
Q 2250 441 2565 725 
Q 2881 1009 2881 1497 
Q 2881 1984 2565 2268 
Q 2250 2553 1709 2553 
Q 1456 2553 1204 2497 
Q 953 2441 691 2322 
L 691 4666 
z
" transform="scale(0.015625)"/>
       </defs>
       <use xlink:href="#DejaVuSans-30"/>
       <use xlink:href="#DejaVuSans-2e" transform="translate(63.623047 0)"/>
       <use xlink:href="#DejaVuSans-35" transform="translate(95.410156 0)"/>
      </g>
     </g>
    </g>
    <g id="xtick_2">
     <g id="line2d_2">
      <path d="M 367.100091 512.64 
L 367.100091 69.12 
" clip-path="url(#pbdf5842918)" style="fill: none; stroke: #cccccc; stroke-width: 1.5; stroke-linecap: round"/>
     </g>
     <g id="text_2">
      <!-- 1.0 -->
      <g style="fill: #262626" transform="translate(353.980013 537.677422) scale(0.165 -0.165)">
       <defs>
        <path id="DejaVuSans-31" d="M 794 531 
L 1825 531 
L 1825 4091 
L 703 3866 
L 703 4441 
L 1819 4666 
L 2450 4666 
L 2450 531 
L 3481 531 
L 3481 0 
L 794 0 
L 794 531 
z
" transform="scale(0.015625)"/>
       </defs>
       <use xlink:href="#DejaVuSans-31"/>
       <use xlink:href="#DejaVuSans-2e" transform="translate(63.623047 0)"/>
       <use xlink:href="#DejaVuSans-30" transform="translate(95.410156 0)"/>
      </g>
     </g>
    </g>
    <g id="xtick_3">
     <g id="line2d_3">
      <path d="M 504.537779 512.64 
L 504.537779 69.12 
" clip-path="url(#pbdf5842918)" style="fill: none; stroke: #cccccc; stroke-width: 1.5; stroke-linecap: round"/>
     </g>
     <g id="text_3">
      <!-- 1.5 -->
      <g style="fill: #262626" transform="translate(491.417701 537.677422) scale(0.165 -0.165)">
       <use xlink:href="#DejaVuSans-31"/>
       <use xlink:href="#DejaVuSans-2e" transform="translate(63.623047 0)"/>
       <use xlink:href="#DejaVuSans-35" transform="translate(95.410156 0)"/>
      </g>
     </g>
    </g>
    <g id="xtick_4">
     <g id="line2d_4">
      <path d="M 641.975468 512.64 
L 641.975468 69.12 
" clip-path="url(#pbdf5842918)" style="fill: none; stroke: #cccccc; stroke-width: 1.5; stroke-linecap: round"/>
     </g>
     <g id="text_4">
      <!-- 2.0 -->
      <g style="fill: #262626" transform="translate(628.855389 537.677422) scale(0.165 -0.165)">
       <defs>
        <path id="DejaVuSans-32" d="M 1228 531 
L 3431 531 
L 3431 0 
L 469 0 
L 469 531 
Q 828 903 1448 1529 
Q 2069 2156 2228 2338 
Q 2531 2678 2651 2914 
Q 2772 3150 2772 3378 
Q 2772 3750 2511 3984 
Q 2250 4219 1831 4219 
Q 1534 4219 1204 4116 
Q 875 4013 500 3803 
L 500 4441 
Q 881 4594 1212 4672 
Q 1544 4750 1819 4750 
Q 2544 4750 2975 4387 
Q 3406 4025 3406 3419 
Q 3406 3131 3298 2873 
Q 3191 2616 2906 2266 
Q 2828 2175 2409 1742 
Q 1991 1309 1228 531 
z
" transform="scale(0.015625)"/>
       </defs>
       <use xlink:href="#DejaVuSans-32"/>
       <use xlink:href="#DejaVuSans-2e" transform="translate(63.623047 0)"/>
       <use xlink:href="#DejaVuSans-30" transform="translate(95.410156 0)"/>
      </g>
     </g>
    </g>
    <g id="text_5">
     <!-- Beta -->
     <g style="fill: #262626" transform="translate(422.04375 558.786094) scale(0.18 -0.18)">
      <defs>
       <path id="DejaVuSans-42" d="M 1259 2228 
L 1259 519 
L 2272 519 
Q 2781 519 3026 730 
Q 3272 941 3272 1375 
Q 3272 1813 3026 2020 
Q 2781 2228 2272 2228 
L 1259 2228 
z
M 1259 4147 
L 1259 2741 
L 2194 2741 
Q 2656 2741 2882 2914 
Q 3109 3088 3109 3444 
Q 3109 3797 2882 3972 
Q 2656 4147 2194 4147 
L 1259 4147 
z
M 628 4666 
L 2241 4666 
Q 2963 4666 3353 4366 
Q 3744 4066 3744 3513 
Q 3744 3084 3544 2831 
Q 3344 2578 2956 2516 
Q 3422 2416 3680 2098 
Q 3938 1781 3938 1306 
Q 3938 681 3513 340 
Q 3088 0 2303 0 
L 628 0 
L 628 4666 
z
" transform="scale(0.015625)"/>
       <path id="DejaVuSans-65" d="M 3597 1894 
L 3597 1613 
L 953 1613 
Q 991 1019 1311 708 
Q 1631 397 2203 397 
Q 2534 397 2845 478 
Q 3156 559 3463 722 
L 3463 178 
Q 3153 47 2828 -22 
Q 2503 -91 2169 -91 
Q 1331 -91 842 396 
Q 353 884 353 1716 
Q 353 2575 817 3079 
Q 1281 3584 2069 3584 
Q 2775 3584 3186 3129 
Q 3597 2675 3597 1894 
z
M 3022 2063 
Q 3016 2534 2758 2815 
Q 2500 3097 2075 3097 
Q 1594 3097 1305 2825 
Q 1016 2553 972 2059 
L 3022 2063 
z
" transform="scale(0.015625)"/>
       <path id="DejaVuSans-74" d="M 1172 4494 
L 1172 3500 
L 2356 3500 
L 2356 3053 
L 1172 3053 
L 1172 1153 
Q 1172 725 1289 603 
Q 1406 481 1766 481 
L 2356 481 
L 2356 0 
L 1766 0 
Q 1100 0 847 248 
Q 594 497 594 1153 
L 594 3053 
L 172 3053 
L 172 3500 
L 594 3500 
L 594 4494 
L 1172 4494 
z
" transform="scale(0.015625)"/>
       <path id="DejaVuSans-61" d="M 2194 1759 
Q 1497 1759 1228 1600 
Q 959 1441 959 1056 
Q 959 750 1161 570 
Q 1363 391 1709 391 
Q 2188 391 2477 730 
Q 2766 1069 2766 1631 
L 2766 1759 
L 2194 1759 
z
M 3341 1997 
L 3341 0 
L 2766 0 
L 2766 531 
Q 2569 213 2275 61 
Q 1981 -91 1556 -91 
Q 1019 -91 701 211 
Q 384 513 384 1019 
Q 384 1609 779 1909 
Q 1175 2209 1959 2209 
L 2766 2209 
L 2766 2266 
Q 2766 2663 2505 2880 
Q 2244 3097 1772 3097 
Q 1472 3097 1187 3025 
Q 903 2953 641 2809 
L 641 3341 
Q 956 3463 1253 3523 
Q 1550 3584 1831 3584 
Q 2591 3584 2966 3190 
Q 3341 2797 3341 1997 
z
" transform="scale(0.015625)"/>
      </defs>
      <use xlink:href="#DejaVuSans-42"/>
      <use xlink:href="#DejaVuSans-65" transform="translate(68.603516 0)"/>
      <use xlink:href="#DejaVuSans-74" transform="translate(130.126953 0)"/>
      <use xlink:href="#DejaVuSans-61" transform="translate(169.335938 0)"/>
     </g>
    </g>
   </g>
   <g id="matplotlib.axis_2">
    <g id="ytick_1">
     <g id="line2d_5">
      <path d="M 108 499.582139 
L 777.6 499.582139 
" clip-path="url(#pbdf5842918)" style="fill: none; stroke: #cccccc; stroke-width: 1.5; stroke-linecap: round"/>
     </g>
     <g id="text_6">
      <!-- 0.000 -->
      <g style="fill: #262626" transform="translate(48.263594 505.85085) scale(0.165 -0.165)">
       <use xlink:href="#DejaVuSans-30"/>
       <use xlink:href="#DejaVuSans-2e" transform="translate(63.623047 0)"/>
       <use xlink:href="#DejaVuSans-30" transform="translate(95.410156 0)"/>
       <use xlink:href="#DejaVuSans-30" transform="translate(159.033203 0)"/>
       <use xlink:href="#DejaVuSans-30" transform="translate(222.65625 0)"/>
      </g>
     </g>
    </g>
    <g id="ytick_2">
     <g id="line2d_6">
      <path d="M 108 434.221952 
L 777.6 434.221952 
" clip-path="url(#pbdf5842918)" style="fill: none; stroke: #cccccc; stroke-width: 1.5; stroke-linecap: round"/>
     </g>
     <g id="text_7">
      <!-- 0.005 -->
      <g style="fill: #262626" transform="translate(48.263594 440.490662) scale(0.165 -0.165)">
       <use xlink:href="#DejaVuSans-30"/>
       <use xlink:href="#DejaVuSans-2e" transform="translate(63.623047 0)"/>
       <use xlink:href="#DejaVuSans-30" transform="translate(95.410156 0)"/>
       <use xlink:href="#DejaVuSans-30" transform="translate(159.033203 0)"/>
       <use xlink:href="#DejaVuSans-35" transform="translate(222.65625 0)"/>
      </g>
     </g>
    </g>
    <g id="ytick_3">
     <g id="line2d_7">
      <path d="M 108 368.861764 
L 777.6 368.861764 
" clip-path="url(#pbdf5842918)" style="fill: none; stroke: #cccccc; stroke-width: 1.5; stroke-linecap: round"/>
     </g>
     <g id="text_8">
      <!-- 0.010 -->
      <g style="fill: #262626" transform="translate(48.263594 375.130475) scale(0.165 -0.165)">
       <use xlink:href="#DejaVuSans-30"/>
       <use xlink:href="#DejaVuSans-2e" transform="translate(63.623047 0)"/>
       <use xlink:href="#DejaVuSans-30" transform="translate(95.410156 0)"/>
       <use xlink:href="#DejaVuSans-31" transform="translate(159.033203 0)"/>
       <use xlink:href="#DejaVuSans-30" transform="translate(222.65625 0)"/>
      </g>
     </g>
    </g>
    <g id="ytick_4">
     <g id="line2d_8">
      <path d="M 108 303.501576 
L 777.6 303.501576 
" clip-path="url(#pbdf5842918)" style="fill: none; stroke: #cccccc; stroke-width: 1.5; stroke-linecap: round"/>
     </g>
     <g id="text_9">
      <!-- 0.015 -->
      <g style="fill: #262626" transform="translate(48.263594 309.770287) scale(0.165 -0.165)">
       <use xlink:href="#DejaVuSans-30"/>
       <use xlink:href="#DejaVuSans-2e" transform="translate(63.623047 0)"/>
       <use xlink:href="#DejaVuSans-30" transform="translate(95.410156 0)"/>
       <use xlink:href="#DejaVuSans-31" transform="translate(159.033203 0)"/>
       <use xlink:href="#DejaVuSans-35" transform="translate(222.65625 0)"/>
      </g>
     </g>
    </g>
    <g id="ytick_5">
     <g id="line2d_9">
      <path d="M 108 238.141388 
L 777.6 238.141388 
" clip-path="url(#pbdf5842918)" style="fill: none; stroke: #cccccc; stroke-width: 1.5; stroke-linecap: round"/>
     </g>
     <g id="text_10">
      <!-- 0.020 -->
      <g style="fill: #262626" transform="translate(48.263594 244.410099) scale(0.165 -0.165)">
       <use xlink:href="#DejaVuSans-30"/>
       <use xlink:href="#DejaVuSans-2e" transform="translate(63.623047 0)"/>
       <use xlink:href="#DejaVuSans-30" transform="translate(95.410156 0)"/>
       <use xlink:href="#DejaVuSans-32" transform="translate(159.033203 0)"/>
       <use xlink:href="#DejaVuSans-30" transform="translate(222.65625 0)"/>
      </g>
     </g>
    </g>
    <g id="ytick_6">
     <g id="line2d_10">
      <path d="M 108 172.7812 
L 777.6 172.7812 
" clip-path="url(#pbdf5842918)" style="fill: none; stroke: #cccccc; stroke-width: 1.5; stroke-linecap: round"/>
     </g>
     <g id="text_11">
      <!-- 0.025 -->
      <g style="fill: #262626" transform="translate(48.263594 179.049911) scale(0.165 -0.165)">
       <use xlink:href="#DejaVuSans-30"/>
       <use xlink:href="#DejaVuSans-2e" transform="translate(63.623047 0)"/>
       <use xlink:href="#DejaVuSans-30" transform="translate(95.410156 0)"/>
       <use xlink:href="#DejaVuSans-32" transform="translate(159.033203 0)"/>
       <use xlink:href="#DejaVuSans-35" transform="translate(222.65625 0)"/>
      </g>
     </g>
    </g>
    <g id="ytick_7">
     <g id="line2d_11">
      <path d="M 108 107.421012 
L 777.6 107.421012 
" clip-path="url(#pbdf5842918)" style="fill: none; stroke: #cccccc; stroke-width: 1.5; stroke-linecap: round"/>
     </g>
     <g id="text_12">
      <!-- 0.030 -->
      <g style="fill: #262626" transform="translate(48.263594 113.689723) scale(0.165 -0.165)">
       <defs>
        <path id="DejaVuSans-33" d="M 2597 2516 
Q 3050 2419 3304 2112 
Q 3559 1806 3559 1356 
Q 3559 666 3084 287 
Q 2609 -91 1734 -91 
Q 1441 -91 1130 -33 
Q 819 25 488 141 
L 488 750 
Q 750 597 1062 519 
Q 1375 441 1716 441 
Q 2309 441 2620 675 
Q 2931 909 2931 1356 
Q 2931 1769 2642 2001 
Q 2353 2234 1838 2234 
L 1294 2234 
L 1294 2753 
L 1863 2753 
Q 2328 2753 2575 2939 
Q 2822 3125 2822 3475 
Q 2822 3834 2567 4026 
Q 2313 4219 1838 4219 
Q 1578 4219 1281 4162 
Q 984 4106 628 3988 
L 628 4550 
Q 988 4650 1302 4700 
Q 1616 4750 1894 4750 
Q 2613 4750 3031 4423 
Q 3450 4097 3450 3541 
Q 3450 3153 3228 2886 
Q 3006 2619 2597 2516 
z
" transform="scale(0.015625)"/>
       </defs>
       <use xlink:href="#DejaVuSans-30"/>
       <use xlink:href="#DejaVuSans-2e" transform="translate(63.623047 0)"/>
       <use xlink:href="#DejaVuSans-30" transform="translate(95.410156 0)"/>
       <use xlink:href="#DejaVuSans-33" transform="translate(159.033203 0)"/>
       <use xlink:href="#DejaVuSans-30" transform="translate(222.65625 0)"/>
      </g>
     </g>
    </g>
    <g id="text_13">
     <!-- Napi Többlethozam -->
     <g style="fill: #262626" transform="translate(40.520156 377.235) rotate(-90) scale(0.18 -0.18)">
      <defs>
       <path id="DejaVuSans-4e" d="M 628 4666 
L 1478 4666 
L 3547 763 
L 3547 4666 
L 4159 4666 
L 4159 0 
L 3309 0 
L 1241 3903 
L 1241 0 
L 628 0 
L 628 4666 
z
" transform="scale(0.015625)"/>
       <path id="DejaVuSans-70" d="M 1159 525 
L 1159 -1331 
L 581 -1331 
L 581 3500 
L 1159 3500 
L 1159 2969 
Q 1341 3281 1617 3432 
Q 1894 3584 2278 3584 
Q 2916 3584 3314 3078 
Q 3713 2572 3713 1747 
Q 3713 922 3314 415 
Q 2916 -91 2278 -91 
Q 1894 -91 1617 61 
Q 1341 213 1159 525 
z
M 3116 1747 
Q 3116 2381 2855 2742 
Q 2594 3103 2138 3103 
Q 1681 3103 1420 2742 
Q 1159 2381 1159 1747 
Q 1159 1113 1420 752 
Q 1681 391 2138 391 
Q 2594 391 2855 752 
Q 3116 1113 3116 1747 
z
" transform="scale(0.015625)"/>
       <path id="DejaVuSans-69" d="M 603 3500 
L 1178 3500 
L 1178 0 
L 603 0 
L 603 3500 
z
M 603 4863 
L 1178 4863 
L 1178 4134 
L 603 4134 
L 603 4863 
z
" transform="scale(0.015625)"/>
       <path id="DejaVuSans-20" transform="scale(0.015625)"/>
       <path id="DejaVuSans-54" d="M -19 4666 
L 3928 4666 
L 3928 4134 
L 2272 4134 
L 2272 0 
L 1638 0 
L 1638 4134 
L -19 4134 
L -19 4666 
z
" transform="scale(0.015625)"/>
       <path id="DejaVuSans-f6" d="M 1959 3097 
Q 1497 3097 1228 2736 
Q 959 2375 959 1747 
Q 959 1119 1226 758 
Q 1494 397 1959 397 
Q 2419 397 2687 759 
Q 2956 1122 2956 1747 
Q 2956 2369 2687 2733 
Q 2419 3097 1959 3097 
z
M 1959 3584 
Q 2709 3584 3137 3096 
Q 3566 2609 3566 1747 
Q 3566 888 3137 398 
Q 2709 -91 1959 -91 
Q 1206 -91 779 398 
Q 353 888 353 1747 
Q 353 2609 779 3096 
Q 1206 3584 1959 3584 
z
M 2253 4850 
L 2888 4850 
L 2888 4219 
L 2253 4219 
L 2253 4850 
z
M 1031 4850 
L 1666 4850 
L 1666 4219 
L 1031 4219 
L 1031 4850 
z
" transform="scale(0.015625)"/>
       <path id="DejaVuSans-62" d="M 3116 1747 
Q 3116 2381 2855 2742 
Q 2594 3103 2138 3103 
Q 1681 3103 1420 2742 
Q 1159 2381 1159 1747 
Q 1159 1113 1420 752 
Q 1681 391 2138 391 
Q 2594 391 2855 752 
Q 3116 1113 3116 1747 
z
M 1159 2969 
Q 1341 3281 1617 3432 
Q 1894 3584 2278 3584 
Q 2916 3584 3314 3078 
Q 3713 2572 3713 1747 
Q 3713 922 3314 415 
Q 2916 -91 2278 -91 
Q 1894 -91 1617 61 
Q 1341 213 1159 525 
L 1159 0 
L 581 0 
L 581 4863 
L 1159 4863 
L 1159 2969 
z
" transform="scale(0.015625)"/>
       <path id="DejaVuSans-6c" d="M 603 4863 
L 1178 4863 
L 1178 0 
L 603 0 
L 603 4863 
z
" transform="scale(0.015625)"/>
       <path id="DejaVuSans-68" d="M 3513 2113 
L 3513 0 
L 2938 0 
L 2938 2094 
Q 2938 2591 2744 2837 
Q 2550 3084 2163 3084 
Q 1697 3084 1428 2787 
Q 1159 2491 1159 1978 
L 1159 0 
L 581 0 
L 581 4863 
L 1159 4863 
L 1159 2956 
Q 1366 3272 1645 3428 
Q 1925 3584 2291 3584 
Q 2894 3584 3203 3211 
Q 3513 2838 3513 2113 
z
" transform="scale(0.015625)"/>
       <path id="DejaVuSans-6f" d="M 1959 3097 
Q 1497 3097 1228 2736 
Q 959 2375 959 1747 
Q 959 1119 1226 758 
Q 1494 397 1959 397 
Q 2419 397 2687 759 
Q 2956 1122 2956 1747 
Q 2956 2369 2687 2733 
Q 2419 3097 1959 3097 
z
M 1959 3584 
Q 2709 3584 3137 3096 
Q 3566 2609 3566 1747 
Q 3566 888 3137 398 
Q 2709 -91 1959 -91 
Q 1206 -91 779 398 
Q 353 888 353 1747 
Q 353 2609 779 3096 
Q 1206 3584 1959 3584 
z
" transform="scale(0.015625)"/>
       <path id="DejaVuSans-7a" d="M 353 3500 
L 3084 3500 
L 3084 2975 
L 922 459 
L 3084 459 
L 3084 0 
L 275 0 
L 275 525 
L 2438 3041 
L 353 3041 
L 353 3500 
z
" transform="scale(0.015625)"/>
       <path id="DejaVuSans-6d" d="M 3328 2828 
Q 3544 3216 3844 3400 
Q 4144 3584 4550 3584 
Q 5097 3584 5394 3201 
Q 5691 2819 5691 2113 
L 5691 0 
L 5113 0 
L 5113 2094 
Q 5113 2597 4934 2840 
Q 4756 3084 4391 3084 
Q 3944 3084 3684 2787 
Q 3425 2491 3425 1978 
L 3425 0 
L 2847 0 
L 2847 2094 
Q 2847 2600 2669 2842 
Q 2491 3084 2119 3084 
Q 1678 3084 1418 2786 
Q 1159 2488 1159 1978 
L 1159 0 
L 581 0 
L 581 3500 
L 1159 3500 
L 1159 2956 
Q 1356 3278 1631 3431 
Q 1906 3584 2284 3584 
Q 2666 3584 2933 3390 
Q 3200 3197 3328 2828 
z
" transform="scale(0.015625)"/>
      </defs>
      <use xlink:href="#DejaVuSans-4e"/>
      <use xlink:href="#DejaVuSans-61" transform="translate(74.804688 0)"/>
      <use xlink:href="#DejaVuSans-70" transform="translate(136.083984 0)"/>
      <use xlink:href="#DejaVuSans-69" transform="translate(199.560547 0)"/>
      <use xlink:href="#DejaVuSans-20" transform="translate(227.34375 0)"/>
      <use xlink:href="#DejaVuSans-54" transform="translate(259.130859 0)"/>
      <use xlink:href="#DejaVuSans-f6" transform="translate(307.089844 0)"/>
      <use xlink:href="#DejaVuSans-62" transform="translate(368.271484 0)"/>
      <use xlink:href="#DejaVuSans-62" transform="translate(431.748047 0)"/>
      <use xlink:href="#DejaVuSans-6c" transform="translate(495.224609 0)"/>
      <use xlink:href="#DejaVuSans-65" transform="translate(523.007812 0)"/>
      <use xlink:href="#DejaVuSans-74" transform="translate(584.53125 0)"/>
      <use xlink:href="#DejaVuSans-68" transform="translate(623.740234 0)"/>
      <use xlink:href="#DejaVuSans-6f" transform="translate(687.119141 0)"/>
      <use xlink:href="#DejaVuSans-7a" transform="translate(748.300781 0)"/>
      <use xlink:href="#DejaVuSans-61" transform="translate(800.791016 0)"/>
      <use xlink:href="#DejaVuSans-6d" transform="translate(862.070312 0)"/>
     </g>
    </g>
   </g>
   <g id="FillBetweenPolyCollection_1">
    <defs>
     <path id="m85073623bf" d="M 138.436364 -201.762818 
L 138.436364 -138.56035 
L 141.495295 -139.462824 
L 144.554226 -140.364227 
L 147.613157 -141.264524 
L 150.672088 -142.163676 
L 153.731019 -143.061645 
L 156.78995 -143.95839 
L 159.848881 -144.853869 
L 162.907812 -145.748037 
L 165.966743 -146.640848 
L 169.025674 -147.532254 
L 172.084605 -148.422205 
L 175.143536 -149.310648 
L 178.202467 -150.197529 
L 181.261398 -151.082791 
L 184.320329 -151.966374 
L 187.37926 -152.848215 
L 190.438191 -153.728251 
L 193.497122 -154.606412 
L 196.556053 -155.482628 
L 199.614984 -156.356825 
L 202.673915 -157.228925 
L 205.732846 -158.098848 
L 208.791777 -158.96651 
L 211.850708 -159.831821 
L 214.909639 -160.694691 
L 217.96857 -161.555022 
L 221.027501 -162.412715 
L 224.086432 -163.267665 
L 227.145363 -164.119761 
L 230.204294 -164.968891 
L 233.263225 -165.814935 
L 236.322156 -166.657768 
L 239.381087 -167.497262 
L 242.440018 -168.333281 
L 245.498949 -169.165685 
L 248.55788 -169.994329 
L 251.616811 -170.819059 
L 254.675742 -171.639719 
L 257.734673 -172.456145 
L 260.793604 -173.268166 
L 263.852535 -174.075608 
L 266.911466 -174.878288 
L 269.970397 -175.676018 
L 273.029328 -176.468605 
L 276.088259 -177.255849 
L 279.14719 -178.037545 
L 282.206122 -178.813483 
L 285.265053 -179.583448 
L 288.323984 -180.34722 
L 291.382915 -181.104576 
L 294.441846 -181.855289 
L 297.500777 -182.599129 
L 300.559708 -183.335864 
L 303.618639 -184.065263 
L 306.67757 -184.787092 
L 309.736501 -185.50112 
L 312.795432 -186.207118 
L 315.854363 -186.904861 
L 318.913294 -187.594127 
L 321.972225 -188.274702 
L 325.031156 -188.94638 
L 328.090087 -189.608961 
L 331.149018 -190.262261 
L 334.207949 -190.906104 
L 337.26688 -191.540329 
L 340.325811 -192.164791 
L 343.384742 -192.779362 
L 346.443673 -193.383929 
L 349.502604 -193.9784 
L 352.561535 -194.562702 
L 355.620466 -195.136783 
L 358.679397 -195.700613 
L 361.738328 -196.25418 
L 364.797259 -196.797496 
L 367.85619 -197.330595 
L 370.915121 -197.853529 
L 373.974052 -198.366374 
L 377.032983 -198.869223 
L 380.091914 -199.362189 
L 383.150845 -199.845402 
L 386.209776 -200.319009 
L 389.268707 -200.783171 
L 392.327638 -201.238064 
L 395.386569 -201.683876 
L 398.4455 -202.120806 
L 401.504431 -202.549059 
L 404.563362 -202.968852 
L 407.622293 -203.380406 
L 410.681224 -203.783946 
L 413.740155 -204.179703 
L 416.799086 -204.567907 
L 419.858017 -204.948791 
L 422.916948 -205.322589 
L 425.975879 -205.68953 
L 429.03481 -206.049844 
L 432.093741 -206.403759 
L 435.152672 -206.751497 
L 438.211603 -207.093278 
L 441.270534 -207.429317 
L 444.329466 -207.759823 
L 447.388397 -208.085001 
L 450.447328 -208.40505 
L 453.506259 -208.720163 
L 456.56519 -209.030528 
L 459.624121 -209.336326 
L 462.683052 -209.637733 
L 465.741983 -209.934918 
L 468.800914 -210.228044 
L 471.859845 -210.517268 
L 474.918776 -210.802743 
L 477.977707 -211.084613 
L 481.036638 -211.363018 
L 484.095569 -211.638093 
L 487.1545 -211.909968 
L 490.213431 -212.178765 
L 493.272362 -212.444604 
L 496.331293 -212.707598 
L 499.390224 -212.967857 
L 502.449155 -213.225485 
L 505.508086 -213.480582 
L 508.567017 -213.733243 
L 511.625948 -213.983562 
L 514.684879 -214.231625 
L 517.74381 -214.477517 
L 520.802741 -214.721318 
L 523.861672 -214.963105 
L 526.920603 -215.202953 
L 529.979534 -215.440932 
L 533.038465 -215.677109 
L 536.097396 -215.91155 
L 539.156327 -216.144316 
L 542.215258 -216.375467 
L 545.274189 -216.60506 
L 548.33312 -216.833149 
L 551.392051 -217.059787 
L 554.450982 -217.285023 
L 557.509913 -217.508906 
L 560.568844 -217.731482 
L 563.627775 -217.952794 
L 566.686706 -218.172886 
L 569.745637 -218.391797 
L 572.804568 -218.609566 
L 575.863499 -218.826232 
L 578.92243 -219.041829 
L 581.981361 -219.256393 
L 585.040292 -219.469956 
L 588.099223 -219.68255 
L 591.158154 -219.894205 
L 594.217085 -220.104952 
L 597.276016 -220.314817 
L 600.334947 -220.523829 
L 603.393878 -220.732012 
L 606.45281 -220.939393 
L 609.511741 -221.145996 
L 612.570672 -221.351843 
L 615.629603 -221.556957 
L 618.688534 -221.761359 
L 621.747465 -221.965071 
L 624.806396 -222.168112 
L 627.865327 -222.370501 
L 630.924258 -222.572257 
L 633.983189 -222.773398 
L 637.04212 -222.973941 
L 640.101051 -223.173903 
L 643.159982 -223.373299 
L 646.218913 -223.572146 
L 649.277844 -223.770458 
L 652.336775 -223.968249 
L 655.395706 -224.165534 
L 658.454637 -224.362326 
L 661.513568 -224.558638 
L 664.572499 -224.754483 
L 667.63143 -224.949872 
L 670.690361 -225.144818 
L 673.749292 -225.339331 
L 676.808223 -225.533423 
L 679.867154 -225.727105 
L 682.926085 -225.920386 
L 685.985016 -226.113278 
L 689.043947 -226.305788 
L 692.102878 -226.497927 
L 695.161809 -226.689704 
L 698.22074 -226.881127 
L 701.279671 -227.072205 
L 704.338602 -227.262946 
L 707.397533 -227.453358 
L 710.456464 -227.643449 
L 713.515395 -227.833227 
L 716.574326 -228.022698 
L 719.633257 -228.21187 
L 722.692188 -228.400749 
L 725.751119 -228.589342 
L 728.81005 -228.777656 
L 731.868981 -228.965697 
L 734.927912 -229.153471 
L 737.986843 -229.340983 
L 741.045774 -229.52824 
L 744.104705 -229.715247 
L 747.163636 -229.90201 
L 747.163636 -332.932734 
L 747.163636 -332.932734 
L 744.104705 -332.001348 
L 741.045774 -331.070207 
L 737.986843 -330.139315 
L 734.927912 -329.208679 
L 731.868981 -328.278304 
L 728.81005 -327.348196 
L 725.751119 -326.418362 
L 722.692188 -325.488806 
L 719.633257 -324.559537 
L 716.574326 -323.63056 
L 713.515395 -322.701883 
L 710.456464 -321.773511 
L 707.397533 -320.845454 
L 704.338602 -319.917718 
L 701.279671 -318.99031 
L 698.22074 -318.06324 
L 695.161809 -317.136514 
L 692.102878 -316.210142 
L 689.043947 -315.284132 
L 685.985016 -314.358494 
L 682.926085 -313.433237 
L 679.867154 -312.508369 
L 676.808223 -311.583902 
L 673.749292 -310.659846 
L 670.690361 -309.736211 
L 667.63143 -308.813008 
L 664.572499 -307.890249 
L 661.513568 -306.967945 
L 658.454637 -306.046108 
L 655.395706 -305.124751 
L 652.336775 -304.203888 
L 649.277844 -303.28353 
L 646.218913 -302.363694 
L 643.159982 -301.444392 
L 640.101051 -300.52564 
L 637.04212 -299.607453 
L 633.983189 -298.689847 
L 630.924258 -297.77284 
L 627.865327 -296.856447 
L 624.806396 -295.940688 
L 621.747465 -295.02558 
L 618.688534 -294.111143 
L 615.629603 -293.197397 
L 612.570672 -292.284362 
L 609.511741 -291.37206 
L 606.45281 -290.460514 
L 603.393878 -289.549747 
L 600.334947 -288.639782 
L 597.276016 -287.730645 
L 594.217085 -286.822361 
L 591.158154 -285.914959 
L 588.099223 -285.008466 
L 585.040292 -284.102911 
L 581.981361 -283.198325 
L 578.92243 -282.29474 
L 575.863499 -281.392189 
L 572.804568 -280.490706 
L 569.745637 -279.590327 
L 566.686706 -278.69109 
L 563.627775 -277.793033 
L 560.568844 -276.896196 
L 557.509913 -276.000624 
L 554.450982 -275.106358 
L 551.392051 -274.213446 
L 548.33312 -273.321935 
L 545.274189 -272.431875 
L 542.215258 -271.54332 
L 539.156327 -270.656322 
L 536.097396 -269.77094 
L 533.038465 -268.887232 
L 529.979534 -268.00526 
L 526.920603 -267.12509 
L 523.861672 -266.246789 
L 520.802741 -265.370428 
L 517.74381 -264.496081 
L 514.684879 -263.623824 
L 511.625948 -262.753738 
L 508.567017 -261.885908 
L 505.508086 -261.020421 
L 502.449155 -260.157369 
L 499.390224 -259.296848 
L 496.331293 -258.438959 
L 493.272362 -257.583804 
L 490.213431 -256.731495 
L 487.1545 -255.882143 
L 484.095569 -255.035869 
L 481.036638 -254.192796 
L 477.977707 -253.353053 
L 474.918776 -252.516774 
L 471.859845 -251.6841 
L 468.800914 -250.855176 
L 465.741983 -250.030153 
L 462.683052 -249.209189 
L 459.624121 -248.392447 
L 456.56519 -247.580097 
L 453.506259 -246.772313 
L 450.447328 -245.969278 
L 447.388397 -245.171178 
L 444.329466 -244.378208 
L 441.270534 -243.590565 
L 438.211603 -242.808455 
L 435.152672 -242.032087 
L 432.093741 -241.261677 
L 429.03481 -240.497443 
L 425.975879 -239.739609 
L 422.916948 -238.988402 
L 419.858017 -238.24405 
L 416.799086 -237.506786 
L 413.740155 -236.776841 
L 410.681224 -236.054449 
L 407.622293 -235.339841 
L 404.563362 -234.633246 
L 401.504431 -233.934891 
L 398.4455 -233.244996 
L 395.386569 -232.563776 
L 392.327638 -231.89144 
L 389.268707 -231.228184 
L 386.209776 -230.574198 
L 383.150845 -229.929656 
L 380.091914 -229.29472 
L 377.032983 -228.669538 
L 373.974052 -228.054238 
L 370.915121 -227.448934 
L 367.85619 -226.85372 
L 364.797259 -226.26867 
L 361.738328 -225.693838 
L 358.679397 -225.129256 
L 355.620466 -224.574937 
L 352.561535 -224.03087 
L 349.502604 -223.497024 
L 346.443673 -222.973346 
L 343.384742 -222.459764 
L 340.325811 -221.956186 
L 337.26688 -221.4625 
L 334.207949 -220.978576 
L 331.149018 -220.504271 
L 328.090087 -220.039422 
L 325.031156 -219.583855 
L 321.972225 -219.137383 
L 318.913294 -218.69981 
L 315.854363 -218.270927 
L 312.795432 -217.850521 
L 309.736501 -217.438371 
L 306.67757 -217.034251 
L 303.618639 -216.637931 
L 300.559708 -216.249181 
L 297.500777 -215.867768 
L 294.441846 -215.493459 
L 291.382915 -215.126023 
L 288.323984 -214.76523 
L 285.265053 -214.410854 
L 282.206122 -214.06267 
L 279.14719 -213.72046 
L 276.088259 -213.384007 
L 273.029328 -213.053103 
L 269.970397 -212.727541 
L 266.911466 -212.407123 
L 263.852535 -212.091654 
L 260.793604 -211.780947 
L 257.734673 -211.47482 
L 254.675742 -211.173097 
L 251.616811 -210.875608 
L 248.55788 -210.58219 
L 245.498949 -210.292685 
L 242.440018 -210.00694 
L 239.381087 -209.724811 
L 236.322156 -209.446156 
L 233.263225 -209.170841 
L 230.204294 -208.898736 
L 227.145363 -208.629717 
L 224.086432 -208.363665 
L 221.027501 -208.100466 
L 217.96857 -207.84001 
L 214.909639 -207.582193 
L 211.850708 -207.326914 
L 208.791777 -207.074077 
L 205.732846 -206.82359 
L 202.673915 -206.575364 
L 199.614984 -206.329316 
L 196.556053 -206.085364 
L 193.497122 -205.843432 
L 190.438191 -205.603444 
L 187.37926 -205.365331 
L 184.320329 -205.129024 
L 181.261398 -204.894458 
L 178.202467 -204.661571 
L 175.143536 -204.430303 
L 172.084605 -204.200598 
L 169.025674 -203.9724 
L 165.966743 -203.745658 
L 162.907812 -203.52032 
L 159.848881 -203.29634 
L 156.78995 -203.07367 
L 153.731019 -202.852266 
L 150.672088 -202.632087 
L 147.613157 -202.41309 
L 144.554226 -202.195238 
L 141.495295 -201.978493 
L 138.436364 -201.762818 
z
" style="stroke: #ffffff; stroke-opacity: 0.15; stroke-width: 1.5"/>
    </defs>
    <g clip-path="url(#pbdf5842918)">
     <use xlink:href="#m85073623bf" x="0" y="576" style="fill: #4c72b0; fill-opacity: 0.15; stroke: #ffffff; stroke-opacity: 0.15; stroke-width: 1.5"/>
    </g>
   </g>
   <g id="PathCollection_1">
    <defs>
     <path id="m096a98b81a" d="M 0 4.5 
C 1.193414 4.5 2.338109 4.025852 3.181981 3.181981 
C 4.025852 2.338109 4.5 1.193414 4.5 0 
C 4.5 -1.193414 4.025852 -2.338109 3.181981 -3.181981 
C 2.338109 -4.025852 1.193414 -4.5 0 -4.5 
C -1.193414 -4.5 -2.338109 -4.025852 -3.181981 -3.181981 
C -4.025852 -2.338109 -4.5 -1.193414 -4.5 0 
C -4.5 1.193414 -4.025852 2.338109 -3.181981 3.181981 
C -2.338109 4.025852 -1.193414 4.5 0 4.5 
z
" style="stroke: #ff0000; stroke-width: 1.5"/>
    </defs>
    <g clip-path="url(#pbdf5842918)">
     <use xlink:href="#m096a98b81a" x="485.118713" y="180.385822" style="fill: #ff0000; stroke: #ff0000; stroke-width: 1.5"/>
     <use xlink:href="#m096a98b81a" x="231.339422" y="369.908688" style="fill: #ff0000; stroke: #ff0000; stroke-width: 1.5"/>
     <use xlink:href="#m096a98b81a" x="474.600239" y="319.952958" style="fill: #ff0000; stroke: #ff0000; stroke-width: 1.5"/>
     <use xlink:href="#m096a98b81a" x="566.789669" y="409.22963" style="fill: #ff0000; stroke: #ff0000; stroke-width: 1.5"/>
     <use xlink:href="#m096a98b81a" x="747.163636" y="223.354212" style="fill: #ff0000; stroke: #ff0000; stroke-width: 1.5"/>
     <use xlink:href="#m096a98b81a" x="278.452849" y="405.338505" style="fill: #ff0000; stroke: #ff0000; stroke-width: 1.5"/>
     <use xlink:href="#m096a98b81a" x="379.385993" y="331.492002" style="fill: #ff0000; stroke: #ff0000; stroke-width: 1.5"/>
     <use xlink:href="#m096a98b81a" x="513.031946" y="241.72783" style="fill: #ff0000; stroke: #ff0000; stroke-width: 1.5"/>
     <use xlink:href="#m096a98b81a" x="449.59787" y="379.527444" style="fill: #ff0000; stroke: #ff0000; stroke-width: 1.5"/>
     <use xlink:href="#m096a98b81a" x="390.434473" y="350.677933" style="fill: #ff0000; stroke: #ff0000; stroke-width: 1.5"/>
     <use xlink:href="#m096a98b81a" x="490.479448" y="382.529498" style="fill: #ff0000; stroke: #ff0000; stroke-width: 1.5"/>
     <use xlink:href="#m096a98b81a" x="385.050162" y="437.314816" style="fill: #ff0000; stroke: #ff0000; stroke-width: 1.5"/>
     <use xlink:href="#m096a98b81a" x="623.903858" y="197.470849" style="fill: #ff0000; stroke: #ff0000; stroke-width: 1.5"/>
     <use xlink:href="#m096a98b81a" x="381.016965" y="276.562247" style="fill: #ff0000; stroke: #ff0000; stroke-width: 1.5"/>
     <use xlink:href="#m096a98b81a" x="244.506965" y="429.756422" style="fill: #ff0000; stroke: #ff0000; stroke-width: 1.5"/>
     <use xlink:href="#m096a98b81a" x="254.746656" y="385.260643" style="fill: #ff0000; stroke: #ff0000; stroke-width: 1.5"/>
     <use xlink:href="#m096a98b81a" x="587.047641" y="487.570992" style="fill: #ff0000; stroke: #ff0000; stroke-width: 1.5"/>
     <use xlink:href="#m096a98b81a" x="439.06831" y="305.267668" style="fill: #ff0000; stroke: #ff0000; stroke-width: 1.5"/>
     <use xlink:href="#m096a98b81a" x="210.243326" y="427.085121" style="fill: #ff0000; stroke: #ff0000; stroke-width: 1.5"/>
     <use xlink:href="#m096a98b81a" x="349.826375" y="417.183804" style="fill: #ff0000; stroke: #ff0000; stroke-width: 1.5"/>
     <use xlink:href="#m096a98b81a" x="488.315007" y="361.32804" style="fill: #ff0000; stroke: #ff0000; stroke-width: 1.5"/>
     <use xlink:href="#m096a98b81a" x="367.948605" y="327.968748" style="fill: #ff0000; stroke: #ff0000; stroke-width: 1.5"/>
     <use xlink:href="#m096a98b81a" x="300.190261" y="357.350189" style="fill: #ff0000; stroke: #ff0000; stroke-width: 1.5"/>
     <use xlink:href="#m096a98b81a" x="481.357348" y="452.981226" style="fill: #ff0000; stroke: #ff0000; stroke-width: 1.5"/>
     <use xlink:href="#m096a98b81a" x="268.362766" y="386.800843" style="fill: #ff0000; stroke: #ff0000; stroke-width: 1.5"/>
     <use xlink:href="#m096a98b81a" x="325.955743" y="372.659158" style="fill: #ff0000; stroke: #ff0000; stroke-width: 1.5"/>
     <use xlink:href="#m096a98b81a" x="372.637398" y="298.628106" style="fill: #ff0000; stroke: #ff0000; stroke-width: 1.5"/>
     <use xlink:href="#m096a98b81a" x="336.831995" y="291.038944" style="fill: #ff0000; stroke: #ff0000; stroke-width: 1.5"/>
     <use xlink:href="#m096a98b81a" x="417.023487" y="409.862171" style="fill: #ff0000; stroke: #ff0000; stroke-width: 1.5"/>
     <use xlink:href="#m096a98b81a" x="198.523008" y="401.029804" style="fill: #ff0000; stroke: #ff0000; stroke-width: 1.5"/>
     <use xlink:href="#m096a98b81a" x="409.350641" y="387.368161" style="fill: #ff0000; stroke: #ff0000; stroke-width: 1.5"/>
     <use xlink:href="#m096a98b81a" x="382.391642" y="383.926279" style="fill: #ff0000; stroke: #ff0000; stroke-width: 1.5"/>
     <use xlink:href="#m096a98b81a" x="316.121636" y="348.243393" style="fill: #ff0000; stroke: #ff0000; stroke-width: 1.5"/>
     <use xlink:href="#m096a98b81a" x="432.676931" y="492.48" style="fill: #ff0000; stroke: #ff0000; stroke-width: 1.5"/>
     <use xlink:href="#m096a98b81a" x="259.491495" y="283.014484" style="fill: #ff0000; stroke: #ff0000; stroke-width: 1.5"/>
     <use xlink:href="#m096a98b81a" x="483.815507" y="380.738028" style="fill: #ff0000; stroke: #ff0000; stroke-width: 1.5"/>
     <use xlink:href="#m096a98b81a" x="359.17187" y="377.417937" style="fill: #ff0000; stroke: #ff0000; stroke-width: 1.5"/>
     <use xlink:href="#m096a98b81a" x="416.057561" y="373.373792" style="fill: #ff0000; stroke: #ff0000; stroke-width: 1.5"/>
     <use xlink:href="#m096a98b81a" x="367.212746" y="441.176995" style="fill: #ff0000; stroke: #ff0000; stroke-width: 1.5"/>
     <use xlink:href="#m096a98b81a" x="453.179077" y="461.233876" style="fill: #ff0000; stroke: #ff0000; stroke-width: 1.5"/>
     <use xlink:href="#m096a98b81a" x="378.999871" y="323.840825" style="fill: #ff0000; stroke: #ff0000; stroke-width: 1.5"/>
     <use xlink:href="#m096a98b81a" x="217.762289" y="401.99434" style="fill: #ff0000; stroke: #ff0000; stroke-width: 1.5"/>
     <use xlink:href="#m096a98b81a" x="457.605079" y="387.231813" style="fill: #ff0000; stroke: #ff0000; stroke-width: 1.5"/>
     <use xlink:href="#m096a98b81a" x="219.72726" y="425.134845" style="fill: #ff0000; stroke: #ff0000; stroke-width: 1.5"/>
     <use xlink:href="#m096a98b81a" x="316.848467" y="330.93099" style="fill: #ff0000; stroke: #ff0000; stroke-width: 1.5"/>
     <use xlink:href="#m096a98b81a" x="223.353437" y="367.42904" style="fill: #ff0000; stroke: #ff0000; stroke-width: 1.5"/>
     <use xlink:href="#m096a98b81a" x="224.354044" y="304.688093" style="fill: #ff0000; stroke: #ff0000; stroke-width: 1.5"/>
     <use xlink:href="#m096a98b81a" x="375.449965" y="322.566295" style="fill: #ff0000; stroke: #ff0000; stroke-width: 1.5"/>
     <use xlink:href="#m096a98b81a" x="266.079317" y="366.899902" style="fill: #ff0000; stroke: #ff0000; stroke-width: 1.5"/>
     <use xlink:href="#m096a98b81a" x="281.656552" y="449.040862" style="fill: #ff0000; stroke: #ff0000; stroke-width: 1.5"/>
     <use xlink:href="#m096a98b81a" x="314.224454" y="418.702738" style="fill: #ff0000; stroke: #ff0000; stroke-width: 1.5"/>
     <use xlink:href="#m096a98b81a" x="222.200539" y="314.71207" style="fill: #ff0000; stroke: #ff0000; stroke-width: 1.5"/>
     <use xlink:href="#m096a98b81a" x="237.747825" y="417.087381" style="fill: #ff0000; stroke: #ff0000; stroke-width: 1.5"/>
     <use xlink:href="#m096a98b81a" x="529.099556" y="402.620063" style="fill: #ff0000; stroke: #ff0000; stroke-width: 1.5"/>
     <use xlink:href="#m096a98b81a" x="418.841682" y="369.069548" style="fill: #ff0000; stroke: #ff0000; stroke-width: 1.5"/>
     <use xlink:href="#m096a98b81a" x="198.045616" y="329.947971" style="fill: #ff0000; stroke: #ff0000; stroke-width: 1.5"/>
     <use xlink:href="#m096a98b81a" x="321.190699" y="296.927959" style="fill: #ff0000; stroke: #ff0000; stroke-width: 1.5"/>
     <use xlink:href="#m096a98b81a" x="643.117538" y="89.28" style="fill: #ff0000; stroke: #ff0000; stroke-width: 1.5"/>
     <use xlink:href="#m096a98b81a" x="423.211005" y="413.542419" style="fill: #ff0000; stroke: #ff0000; stroke-width: 1.5"/>
     <use xlink:href="#m096a98b81a" x="220.023653" y="395.581866" style="fill: #ff0000; stroke: #ff0000; stroke-width: 1.5"/>
     <use xlink:href="#m096a98b81a" x="273.372365" y="436.647717" style="fill: #ff0000; stroke: #ff0000; stroke-width: 1.5"/>
     <use xlink:href="#m096a98b81a" x="167.98997" y="412.956722" style="fill: #ff0000; stroke: #ff0000; stroke-width: 1.5"/>
     <use xlink:href="#m096a98b81a" x="418.901912" y="395.336569" style="fill: #ff0000; stroke: #ff0000; stroke-width: 1.5"/>
     <use xlink:href="#m096a98b81a" x="347.968189" y="375.685767" style="fill: #ff0000; stroke: #ff0000; stroke-width: 1.5"/>
     <use xlink:href="#m096a98b81a" x="334.940811" y="304.515502" style="fill: #ff0000; stroke: #ff0000; stroke-width: 1.5"/>
     <use xlink:href="#m096a98b81a" x="478.965917" y="393.816789" style="fill: #ff0000; stroke: #ff0000; stroke-width: 1.5"/>
     <use xlink:href="#m096a98b81a" x="138.436364" y="373.357143" style="fill: #ff0000; stroke: #ff0000; stroke-width: 1.5"/>
     <use xlink:href="#m096a98b81a" x="354.124443" y="329.331519" style="fill: #ff0000; stroke: #ff0000; stroke-width: 1.5"/>
     <use xlink:href="#m096a98b81a" x="268.97342" y="429.701902" style="fill: #ff0000; stroke: #ff0000; stroke-width: 1.5"/>
     <use xlink:href="#m096a98b81a" x="339.804845" y="369.008214" style="fill: #ff0000; stroke: #ff0000; stroke-width: 1.5"/>
     <use xlink:href="#m096a98b81a" x="353.945403" y="301.769724" style="fill: #ff0000; stroke: #ff0000; stroke-width: 1.5"/>
     <use xlink:href="#m096a98b81a" x="445.15906" y="405.993814" style="fill: #ff0000; stroke: #ff0000; stroke-width: 1.5"/>
     <use xlink:href="#m096a98b81a" x="254.599166" y="264.82715" style="fill: #ff0000; stroke: #ff0000; stroke-width: 1.5"/>
     <use xlink:href="#m096a98b81a" x="328.601774" y="318.405027" style="fill: #ff0000; stroke: #ff0000; stroke-width: 1.5"/>
     <use xlink:href="#m096a98b81a" x="318.978093" y="403.51752" style="fill: #ff0000; stroke: #ff0000; stroke-width: 1.5"/>
     <use xlink:href="#m096a98b81a" x="336.610479" y="396.399192" style="fill: #ff0000; stroke: #ff0000; stroke-width: 1.5"/>
     <use xlink:href="#m096a98b81a" x="267.275177" y="444.114175" style="fill: #ff0000; stroke: #ff0000; stroke-width: 1.5"/>
     <use xlink:href="#m096a98b81a" x="351.796851" y="391.485663" style="fill: #ff0000; stroke: #ff0000; stroke-width: 1.5"/>
     <use xlink:href="#m096a98b81a" x="214.437169" y="425.724024" style="fill: #ff0000; stroke: #ff0000; stroke-width: 1.5"/>
     <use xlink:href="#m096a98b81a" x="282.540299" y="402.404613" style="fill: #ff0000; stroke: #ff0000; stroke-width: 1.5"/>
    </g>
   </g>
   <g id="line2d_12">
    <path d="M 138.436364 405.838416 
L 747.163636 294.582628 
L 747.163636 294.582628 
" clip-path="url(#pbdf5842918)" style="fill: none; stroke: #4c72b0; stroke-width: 2.25; stroke-linecap: round"/>
   </g>
   <g id="line2d_13">
    <path d="M 138.436364 490.126628 
L 747.163636 365.573016 
L 747.163636 365.573016 
" clip-path="url(#pbdf5842918)" style="fill: none; stroke: #dd8452; stroke-width: 2.25; stroke-linecap: round"/>
   </g>
   <g id="patch_3">
    <path d="M 108 512.64 
L 108 69.12 
" style="fill: none; stroke: #cccccc; stroke-width: 1.875; stroke-linejoin: miter; stroke-linecap: square"/>
   </g>
   <g id="patch_4">
    <path d="M 777.6 512.64 
L 777.6 69.12 
" style="fill: none; stroke: #cccccc; stroke-width: 1.875; stroke-linejoin: miter; stroke-linecap: square"/>
   </g>
   <g id="patch_5">
    <path d="M 108 512.64 
L 777.6 512.64 
" style="fill: none; stroke: #cccccc; stroke-width: 1.875; stroke-linejoin: miter; stroke-linecap: square"/>
   </g>
   <g id="patch_6">
    <path d="M 108 69.12 
L 777.6 69.12 
" style="fill: none; stroke: #cccccc; stroke-width: 1.875; stroke-linejoin: miter; stroke-linecap: square"/>
   </g>
   <g id="text_14">
    <!-- SML egyenesek havi adatokkal számolva -->
    <g style="fill: #262626" transform="translate(258.419531 63.12) scale(0.18 -0.18)">
     <defs>
      <path id="DejaVuSans-53" d="M 3425 4513 
L 3425 3897 
Q 3066 4069 2747 4153 
Q 2428 4238 2131 4238 
Q 1616 4238 1336 4038 
Q 1056 3838 1056 3469 
Q 1056 3159 1242 3001 
Q 1428 2844 1947 2747 
L 2328 2669 
Q 3034 2534 3370 2195 
Q 3706 1856 3706 1288 
Q 3706 609 3251 259 
Q 2797 -91 1919 -91 
Q 1588 -91 1214 -16 
Q 841 59 441 206 
L 441 856 
Q 825 641 1194 531 
Q 1563 422 1919 422 
Q 2459 422 2753 634 
Q 3047 847 3047 1241 
Q 3047 1584 2836 1778 
Q 2625 1972 2144 2069 
L 1759 2144 
Q 1053 2284 737 2584 
Q 422 2884 422 3419 
Q 422 4038 858 4394 
Q 1294 4750 2059 4750 
Q 2388 4750 2728 4690 
Q 3069 4631 3425 4513 
z
" transform="scale(0.015625)"/>
      <path id="DejaVuSans-4d" d="M 628 4666 
L 1569 4666 
L 2759 1491 
L 3956 4666 
L 4897 4666 
L 4897 0 
L 4281 0 
L 4281 4097 
L 3078 897 
L 2444 897 
L 1241 4097 
L 1241 0 
L 628 0 
L 628 4666 
z
" transform="scale(0.015625)"/>
      <path id="DejaVuSans-4c" d="M 628 4666 
L 1259 4666 
L 1259 531 
L 3531 531 
L 3531 0 
L 628 0 
L 628 4666 
z
" transform="scale(0.015625)"/>
      <path id="DejaVuSans-67" d="M 2906 1791 
Q 2906 2416 2648 2759 
Q 2391 3103 1925 3103 
Q 1463 3103 1205 2759 
Q 947 2416 947 1791 
Q 947 1169 1205 825 
Q 1463 481 1925 481 
Q 2391 481 2648 825 
Q 2906 1169 2906 1791 
z
M 3481 434 
Q 3481 -459 3084 -895 
Q 2688 -1331 1869 -1331 
Q 1566 -1331 1297 -1286 
Q 1028 -1241 775 -1147 
L 775 -588 
Q 1028 -725 1275 -790 
Q 1522 -856 1778 -856 
Q 2344 -856 2625 -561 
Q 2906 -266 2906 331 
L 2906 616 
Q 2728 306 2450 153 
Q 2172 0 1784 0 
Q 1141 0 747 490 
Q 353 981 353 1791 
Q 353 2603 747 3093 
Q 1141 3584 1784 3584 
Q 2172 3584 2450 3431 
Q 2728 3278 2906 2969 
L 2906 3500 
L 3481 3500 
L 3481 434 
z
" transform="scale(0.015625)"/>
      <path id="DejaVuSans-79" d="M 2059 -325 
Q 1816 -950 1584 -1140 
Q 1353 -1331 966 -1331 
L 506 -1331 
L 506 -850 
L 844 -850 
Q 1081 -850 1212 -737 
Q 1344 -625 1503 -206 
L 1606 56 
L 191 3500 
L 800 3500 
L 1894 763 
L 2988 3500 
L 3597 3500 
L 2059 -325 
z
" transform="scale(0.015625)"/>
      <path id="DejaVuSans-6e" d="M 3513 2113 
L 3513 0 
L 2938 0 
L 2938 2094 
Q 2938 2591 2744 2837 
Q 2550 3084 2163 3084 
Q 1697 3084 1428 2787 
Q 1159 2491 1159 1978 
L 1159 0 
L 581 0 
L 581 3500 
L 1159 3500 
L 1159 2956 
Q 1366 3272 1645 3428 
Q 1925 3584 2291 3584 
Q 2894 3584 3203 3211 
Q 3513 2838 3513 2113 
z
" transform="scale(0.015625)"/>
      <path id="DejaVuSans-73" d="M 2834 3397 
L 2834 2853 
Q 2591 2978 2328 3040 
Q 2066 3103 1784 3103 
Q 1356 3103 1142 2972 
Q 928 2841 928 2578 
Q 928 2378 1081 2264 
Q 1234 2150 1697 2047 
L 1894 2003 
Q 2506 1872 2764 1633 
Q 3022 1394 3022 966 
Q 3022 478 2636 193 
Q 2250 -91 1575 -91 
Q 1294 -91 989 -36 
Q 684 19 347 128 
L 347 722 
Q 666 556 975 473 
Q 1284 391 1588 391 
Q 1994 391 2212 530 
Q 2431 669 2431 922 
Q 2431 1156 2273 1281 
Q 2116 1406 1581 1522 
L 1381 1569 
Q 847 1681 609 1914 
Q 372 2147 372 2553 
Q 372 3047 722 3315 
Q 1072 3584 1716 3584 
Q 2034 3584 2315 3537 
Q 2597 3491 2834 3397 
z
" transform="scale(0.015625)"/>
      <path id="DejaVuSans-6b" d="M 581 4863 
L 1159 4863 
L 1159 1991 
L 2875 3500 
L 3609 3500 
L 1753 1863 
L 3688 0 
L 2938 0 
L 1159 1709 
L 1159 0 
L 581 0 
L 581 4863 
z
" transform="scale(0.015625)"/>
      <path id="DejaVuSans-76" d="M 191 3500 
L 800 3500 
L 1894 563 
L 2988 3500 
L 3597 3500 
L 2284 0 
L 1503 0 
L 191 3500 
z
" transform="scale(0.015625)"/>
      <path id="DejaVuSans-64" d="M 2906 2969 
L 2906 4863 
L 3481 4863 
L 3481 0 
L 2906 0 
L 2906 525 
Q 2725 213 2448 61 
Q 2172 -91 1784 -91 
Q 1150 -91 751 415 
Q 353 922 353 1747 
Q 353 2572 751 3078 
Q 1150 3584 1784 3584 
Q 2172 3584 2448 3432 
Q 2725 3281 2906 2969 
z
M 947 1747 
Q 947 1113 1208 752 
Q 1469 391 1925 391 
Q 2381 391 2643 752 
Q 2906 1113 2906 1747 
Q 2906 2381 2643 2742 
Q 2381 3103 1925 3103 
Q 1469 3103 1208 2742 
Q 947 2381 947 1747 
z
" transform="scale(0.015625)"/>
      <path id="DejaVuSans-e1" d="M 2194 1759 
Q 1497 1759 1228 1600 
Q 959 1441 959 1056 
Q 959 750 1161 570 
Q 1363 391 1709 391 
Q 2188 391 2477 730 
Q 2766 1069 2766 1631 
L 2766 1759 
L 2194 1759 
z
M 3341 1997 
L 3341 0 
L 2766 0 
L 2766 531 
Q 2569 213 2275 61 
Q 1981 -91 1556 -91 
Q 1019 -91 701 211 
Q 384 513 384 1019 
Q 384 1609 779 1909 
Q 1175 2209 1959 2209 
L 2766 2209 
L 2766 2266 
Q 2766 2663 2505 2880 
Q 2244 3097 1772 3097 
Q 1472 3097 1187 3025 
Q 903 2953 641 2809 
L 641 3341 
Q 956 3463 1253 3523 
Q 1550 3584 1831 3584 
Q 2591 3584 2966 3190 
Q 3341 2797 3341 1997 
z
M 2291 5119 
L 2913 5119 
L 1894 3944 
L 1416 3944 
L 2291 5119 
z
" transform="scale(0.015625)"/>
     </defs>
     <use xlink:href="#DejaVuSans-53"/>
     <use xlink:href="#DejaVuSans-4d" transform="translate(63.476562 0)"/>
     <use xlink:href="#DejaVuSans-4c" transform="translate(149.755859 0)"/>
     <use xlink:href="#DejaVuSans-20" transform="translate(205.46875 0)"/>
     <use xlink:href="#DejaVuSans-65" transform="translate(237.255859 0)"/>
     <use xlink:href="#DejaVuSans-67" transform="translate(298.779297 0)"/>
     <use xlink:href="#DejaVuSans-79" transform="translate(362.255859 0)"/>
     <use xlink:href="#DejaVuSans-65" transform="translate(421.435547 0)"/>
     <use xlink:href="#DejaVuSans-6e" transform="translate(482.958984 0)"/>
     <use xlink:href="#DejaVuSans-65" transform="translate(546.337891 0)"/>
     <use xlink:href="#DejaVuSans-73" transform="translate(607.861328 0)"/>
     <use xlink:href="#DejaVuSans-65" transform="translate(659.960938 0)"/>
     <use xlink:href="#DejaVuSans-6b" transform="translate(721.484375 0)"/>
     <use xlink:href="#DejaVuSans-20" transform="translate(779.394531 0)"/>
     <use xlink:href="#DejaVuSans-68" transform="translate(811.181641 0)"/>
     <use xlink:href="#DejaVuSans-61" transform="translate(874.560547 0)"/>
     <use xlink:href="#DejaVuSans-76" transform="translate(935.839844 0)"/>
     <use xlink:href="#DejaVuSans-69" transform="translate(995.019531 0)"/>
     <use xlink:href="#DejaVuSans-20" transform="translate(1022.802734 0)"/>
     <use xlink:href="#DejaVuSans-61" transform="translate(1054.589844 0)"/>
     <use xlink:href="#DejaVuSans-64" transform="translate(1115.869141 0)"/>
     <use xlink:href="#DejaVuSans-61" transform="translate(1179.345703 0)"/>
     <use xlink:href="#DejaVuSans-74" transform="translate(1240.625 0)"/>
     <use xlink:href="#DejaVuSans-6f" transform="translate(1279.833984 0)"/>
     <use xlink:href="#DejaVuSans-6b" transform="translate(1341.015625 0)"/>
     <use xlink:href="#DejaVuSans-6b" transform="translate(1398.925781 0)"/>
     <use xlink:href="#DejaVuSans-61" transform="translate(1455.085938 0)"/>
     <use xlink:href="#DejaVuSans-6c" transform="translate(1516.365234 0)"/>
     <use xlink:href="#DejaVuSans-20" transform="translate(1544.148438 0)"/>
     <use xlink:href="#DejaVuSans-73" transform="translate(1575.935547 0)"/>
     <use xlink:href="#DejaVuSans-7a" transform="translate(1628.035156 0)"/>
     <use xlink:href="#DejaVuSans-e1" transform="translate(1680.525391 0)"/>
     <use xlink:href="#DejaVuSans-6d" transform="translate(1741.804688 0)"/>
     <use xlink:href="#DejaVuSans-6f" transform="translate(1839.216797 0)"/>
     <use xlink:href="#DejaVuSans-6c" transform="translate(1900.398438 0)"/>
     <use xlink:href="#DejaVuSans-76" transform="translate(1928.181641 0)"/>
     <use xlink:href="#DejaVuSans-61" transform="translate(1987.361328 0)"/>
    </g>
   </g>
   <g id="legend_1">
    <g id="patch_7">
     <path d="M 119.55 130.757812 
L 347.765625 130.757812 
Q 351.065625 130.757812 351.065625 127.457812 
L 351.065625 80.67 
Q 351.065625 77.37 347.765625 77.37 
L 119.55 77.37 
Q 116.25 77.37 116.25 80.67 
L 116.25 127.457812 
Q 116.25 130.757812 119.55 130.757812 
z
" style="fill: #ffffff; opacity: 0.8; stroke: #cccccc; stroke-width: 1.5; stroke-linejoin: miter"/>
    </g>
    <g id="line2d_14">
     <path d="M 122.85 90.732422 
L 139.35 90.732422 
L 155.85 90.732422 
" style="fill: none; stroke: #4c72b0; stroke-width: 2.25; stroke-linecap: round"/>
    </g>
    <g id="text_15">
     <!-- Empirikus SML (havi) -->
     <g style="fill: #262626" transform="translate(169.05 96.507422) scale(0.165 -0.165)">
      <defs>
       <path id="DejaVuSans-45" d="M 628 4666 
L 3578 4666 
L 3578 4134 
L 1259 4134 
L 1259 2753 
L 3481 2753 
L 3481 2222 
L 1259 2222 
L 1259 531 
L 3634 531 
L 3634 0 
L 628 0 
L 628 4666 
z
" transform="scale(0.015625)"/>
       <path id="DejaVuSans-72" d="M 2631 2963 
Q 2534 3019 2420 3045 
Q 2306 3072 2169 3072 
Q 1681 3072 1420 2755 
Q 1159 2438 1159 1844 
L 1159 0 
L 581 0 
L 581 3500 
L 1159 3500 
L 1159 2956 
Q 1341 3275 1631 3429 
Q 1922 3584 2338 3584 
Q 2397 3584 2469 3576 
Q 2541 3569 2628 3553 
L 2631 2963 
z
" transform="scale(0.015625)"/>
       <path id="DejaVuSans-75" d="M 544 1381 
L 544 3500 
L 1119 3500 
L 1119 1403 
Q 1119 906 1312 657 
Q 1506 409 1894 409 
Q 2359 409 2629 706 
Q 2900 1003 2900 1516 
L 2900 3500 
L 3475 3500 
L 3475 0 
L 2900 0 
L 2900 538 
Q 2691 219 2414 64 
Q 2138 -91 1772 -91 
Q 1169 -91 856 284 
Q 544 659 544 1381 
z
M 1991 3584 
L 1991 3584 
z
" transform="scale(0.015625)"/>
       <path id="DejaVuSans-28" d="M 1984 4856 
Q 1566 4138 1362 3434 
Q 1159 2731 1159 2009 
Q 1159 1288 1364 580 
Q 1569 -128 1984 -844 
L 1484 -844 
Q 1016 -109 783 600 
Q 550 1309 550 2009 
Q 550 2706 781 3412 
Q 1013 4119 1484 4856 
L 1984 4856 
z
" transform="scale(0.015625)"/>
       <path id="DejaVuSans-29" d="M 513 4856 
L 1013 4856 
Q 1481 4119 1714 3412 
Q 1947 2706 1947 2009 
Q 1947 1309 1714 600 
Q 1481 -109 1013 -844 
L 513 -844 
Q 928 -128 1133 580 
Q 1338 1288 1338 2009 
Q 1338 2731 1133 3434 
Q 928 4138 513 4856 
z
" transform="scale(0.015625)"/>
      </defs>
      <use xlink:href="#DejaVuSans-45"/>
      <use xlink:href="#DejaVuSans-6d" transform="translate(63.183594 0)"/>
      <use xlink:href="#DejaVuSans-70" transform="translate(160.595703 0)"/>
      <use xlink:href="#DejaVuSans-69" transform="translate(224.072266 0)"/>
      <use xlink:href="#DejaVuSans-72" transform="translate(251.855469 0)"/>
      <use xlink:href="#DejaVuSans-69" transform="translate(292.96875 0)"/>
      <use xlink:href="#DejaVuSans-6b" transform="translate(320.751953 0)"/>
      <use xlink:href="#DejaVuSans-75" transform="translate(375.537109 0)"/>
      <use xlink:href="#DejaVuSans-73" transform="translate(438.916016 0)"/>
      <use xlink:href="#DejaVuSans-20" transform="translate(491.015625 0)"/>
      <use xlink:href="#DejaVuSans-53" transform="translate(522.802734 0)"/>
      <use xlink:href="#DejaVuSans-4d" transform="translate(586.279297 0)"/>
      <use xlink:href="#DejaVuSans-4c" transform="translate(672.558594 0)"/>
      <use xlink:href="#DejaVuSans-20" transform="translate(728.271484 0)"/>
      <use xlink:href="#DejaVuSans-28" transform="translate(760.058594 0)"/>
      <use xlink:href="#DejaVuSans-68" transform="translate(799.072266 0)"/>
      <use xlink:href="#DejaVuSans-61" transform="translate(862.451172 0)"/>
      <use xlink:href="#DejaVuSans-76" transform="translate(923.730469 0)"/>
      <use xlink:href="#DejaVuSans-69" transform="translate(982.910156 0)"/>
      <use xlink:href="#DejaVuSans-29" transform="translate(1010.693359 0)"/>
     </g>
    </g>
    <g id="line2d_15">
     <path d="M 122.85 114.951328 
L 139.35 114.951328 
L 155.85 114.951328 
" style="fill: none; stroke: #dd8452; stroke-width: 2.25; stroke-linecap: round"/>
    </g>
    <g id="text_16">
     <!-- Teoretikus SML (havi) -->
     <g style="fill: #262626" transform="translate(169.05 120.726328) scale(0.165 -0.165)">
      <use xlink:href="#DejaVuSans-54"/>
      <use xlink:href="#DejaVuSans-65" transform="translate(44.083984 0)"/>
      <use xlink:href="#DejaVuSans-6f" transform="translate(105.607422 0)"/>
      <use xlink:href="#DejaVuSans-72" transform="translate(166.789062 0)"/>
      <use xlink:href="#DejaVuSans-65" transform="translate(205.652344 0)"/>
      <use xlink:href="#DejaVuSans-74" transform="translate(267.175781 0)"/>
      <use xlink:href="#DejaVuSans-69" transform="translate(306.384766 0)"/>
      <use xlink:href="#DejaVuSans-6b" transform="translate(334.167969 0)"/>
      <use xlink:href="#DejaVuSans-75" transform="translate(388.953125 0)"/>
      <use xlink:href="#DejaVuSans-73" transform="translate(452.332031 0)"/>
      <use xlink:href="#DejaVuSans-20" transform="translate(504.431641 0)"/>
      <use xlink:href="#DejaVuSans-53" transform="translate(536.21875 0)"/>
      <use xlink:href="#DejaVuSans-4d" transform="translate(599.695312 0)"/>
      <use xlink:href="#DejaVuSans-4c" transform="translate(685.974609 0)"/>
      <use xlink:href="#DejaVuSans-20" transform="translate(741.6875 0)"/>
      <use xlink:href="#DejaVuSans-28" transform="translate(773.474609 0)"/>
      <use xlink:href="#DejaVuSans-68" transform="translate(812.488281 0)"/>
      <use xlink:href="#DejaVuSans-61" transform="translate(875.867188 0)"/>
      <use xlink:href="#DejaVuSans-76" transform="translate(937.146484 0)"/>
      <use xlink:href="#DejaVuSans-69" transform="translate(996.326172 0)"/>
      <use xlink:href="#DejaVuSans-29" transform="translate(1024.109375 0)"/>
     </g>
    </g>
   </g>
  </g>
 </g>
 <defs>
  <clipPath id="pbdf5842918">
   <rect x="108" y="69.12" width="669.6" height="443.52"/>
  </clipPath>
 </defs>
</svg>
